<svg viewBox="10 10 52 52" xmlns="http://www.w3.org/2000/svg">
  <path d="M62 62H51.315625V43.8021149C51.315625 38.8127542 49.4197917 36.0245323 45.4707031 36.0245323C41.1746094 36.0245323 38.9300781 38.9261103 38.9300781 43.8021149V62H28.6333333V27.3333333H38.9300781V32.0029283C38.9300781 32.0029283 42.0260417 26.2742151 49.3825521 26.2742151C56.7356771 26.2742151 62 30.7644705 62 40.051212V62ZM16.349349 22.7940133C12.8420573 22.7940133 10 19.9296567 10 16.3970067C10 12.8643566 12.8420573 10 16.349349 10C19.8566406 10 22.6970052 12.8643566 22.6970052 16.3970067C22.6970052 19.9296567 19.8566406 22.7940133 16.349349 22.7940133ZM11.0325521 62H21.769401V27.3333333H11.0325521V62Z" fill="currentColor"/>
</svg>
